<mxfile host="app.diagrams.net" modified="2021-08-31T19:45:45.671Z" agent="5.0 (Windows NT 10.0; Win64; x64) AppleWebKit/537.36 (KHTML, like Gecko) Chrome/92.0.4515.131 Safari/537.36 OPR/78.0.4093.147" etag="NC9fZno867-wYnePyPkH" version="15.0.4" type="github">
  <diagram id="C5RBs43oDa-KdzZeNtuy" name="Page-1">
    <mxGraphModel dx="1152" dy="663" grid="1" gridSize="10" guides="1" tooltips="1" connect="1" arrows="1" fold="1" page="1" pageScale="1" pageWidth="1169" pageHeight="1654" math="0" shadow="0">
      <root>
        <mxCell id="WIyWlLk6GJQsqaUBKTNV-0" />
        <mxCell id="WIyWlLk6GJQsqaUBKTNV-1" parent="WIyWlLk6GJQsqaUBKTNV-0" />
        <mxCell id="vMiu2fG2k06gHXOazZ61-3" value="" style="edgeStyle=orthogonalEdgeStyle;rounded=0;orthogonalLoop=1;jettySize=auto;html=1;" edge="1" parent="WIyWlLk6GJQsqaUBKTNV-1" source="WIyWlLk6GJQsqaUBKTNV-3" target="vMiu2fG2k06gHXOazZ61-1">
          <mxGeometry relative="1" as="geometry" />
        </mxCell>
        <mxCell id="WIyWlLk6GJQsqaUBKTNV-3" value="Włączenie &lt;br&gt;zasilania" style="rounded=1;whiteSpace=wrap;html=1;fontSize=12;glass=0;strokeWidth=1;shadow=0;" parent="WIyWlLk6GJQsqaUBKTNV-1" vertex="1">
          <mxGeometry x="354" y="40" width="146" height="40" as="geometry" />
        </mxCell>
        <mxCell id="vMiu2fG2k06gHXOazZ61-7" value="" style="edgeStyle=orthogonalEdgeStyle;rounded=0;orthogonalLoop=1;jettySize=auto;html=1;" edge="1" parent="WIyWlLk6GJQsqaUBKTNV-1" source="vMiu2fG2k06gHXOazZ61-1" target="vMiu2fG2k06gHXOazZ61-4">
          <mxGeometry relative="1" as="geometry" />
        </mxCell>
        <mxCell id="vMiu2fG2k06gHXOazZ61-1" value="Ustalenie maksymalnej częstotliwości pracy" style="rounded=1;whiteSpace=wrap;html=1;" vertex="1" parent="WIyWlLk6GJQsqaUBKTNV-1">
          <mxGeometry x="354" y="120" width="146" height="40" as="geometry" />
        </mxCell>
        <mxCell id="vMiu2fG2k06gHXOazZ61-9" value="" style="edgeStyle=orthogonalEdgeStyle;rounded=0;orthogonalLoop=1;jettySize=auto;html=1;" edge="1" parent="WIyWlLk6GJQsqaUBKTNV-1" source="vMiu2fG2k06gHXOazZ61-4" target="vMiu2fG2k06gHXOazZ61-8">
          <mxGeometry relative="1" as="geometry" />
        </mxCell>
        <mxCell id="vMiu2fG2k06gHXOazZ61-4" value="Pomiar temperatury" style="rounded=1;whiteSpace=wrap;html=1;" vertex="1" parent="WIyWlLk6GJQsqaUBKTNV-1">
          <mxGeometry x="365.5" y="200" width="123" height="40" as="geometry" />
        </mxCell>
        <mxCell id="vMiu2fG2k06gHXOazZ61-13" value="" style="edgeStyle=orthogonalEdgeStyle;rounded=0;orthogonalLoop=1;jettySize=auto;html=1;" edge="1" parent="WIyWlLk6GJQsqaUBKTNV-1" source="vMiu2fG2k06gHXOazZ61-8" target="vMiu2fG2k06gHXOazZ61-11">
          <mxGeometry relative="1" as="geometry">
            <mxPoint x="247" y="320" as="targetPoint" />
          </mxGeometry>
        </mxCell>
        <mxCell id="vMiu2fG2k06gHXOazZ61-8" value="Przekroczona&amp;nbsp;&lt;br&gt;maksymalna&lt;br&gt;temp." style="rhombus;whiteSpace=wrap;html=1;" vertex="1" parent="WIyWlLk6GJQsqaUBKTNV-1">
          <mxGeometry x="357" y="280" width="140" height="80" as="geometry" />
        </mxCell>
        <mxCell id="vMiu2fG2k06gHXOazZ61-16" value="" style="edgeStyle=orthogonalEdgeStyle;rounded=0;orthogonalLoop=1;jettySize=auto;html=1;" edge="1" parent="WIyWlLk6GJQsqaUBKTNV-1" source="vMiu2fG2k06gHXOazZ61-11" target="vMiu2fG2k06gHXOazZ61-15">
          <mxGeometry relative="1" as="geometry" />
        </mxCell>
        <mxCell id="vMiu2fG2k06gHXOazZ61-11" value="Wyłącz wyjście na 5s" style="rounded=1;whiteSpace=wrap;html=1;" vertex="1" parent="WIyWlLk6GJQsqaUBKTNV-1">
          <mxGeometry x="215" y="370" width="125" height="30" as="geometry" />
        </mxCell>
        <mxCell id="vMiu2fG2k06gHXOazZ61-14" value="TAK" style="text;html=1;strokeColor=none;fillColor=none;align=center;verticalAlign=middle;whiteSpace=wrap;rounded=0;" vertex="1" parent="WIyWlLk6GJQsqaUBKTNV-1">
          <mxGeometry x="300" y="300" width="40" height="20" as="geometry" />
        </mxCell>
        <mxCell id="vMiu2fG2k06gHXOazZ61-19" value="" style="edgeStyle=orthogonalEdgeStyle;rounded=0;orthogonalLoop=1;jettySize=auto;html=1;entryX=0.5;entryY=1;entryDx=0;entryDy=0;" edge="1" parent="WIyWlLk6GJQsqaUBKTNV-1" source="vMiu2fG2k06gHXOazZ61-15" target="vMiu2fG2k06gHXOazZ61-17">
          <mxGeometry relative="1" as="geometry">
            <mxPoint x="277.5" y="535" as="targetPoint" />
            <Array as="points">
              <mxPoint x="278" y="503" />
              <mxPoint x="110" y="503" />
            </Array>
          </mxGeometry>
        </mxCell>
        <mxCell id="vMiu2fG2k06gHXOazZ61-15" value="Pomiar temperatury" style="rounded=1;whiteSpace=wrap;html=1;" vertex="1" parent="WIyWlLk6GJQsqaUBKTNV-1">
          <mxGeometry x="212.5" y="440" width="130" height="30" as="geometry" />
        </mxCell>
        <mxCell id="vMiu2fG2k06gHXOazZ61-20" value="" style="edgeStyle=orthogonalEdgeStyle;rounded=0;orthogonalLoop=1;jettySize=auto;html=1;" edge="1" parent="WIyWlLk6GJQsqaUBKTNV-1" source="vMiu2fG2k06gHXOazZ61-17" target="vMiu2fG2k06gHXOazZ61-11">
          <mxGeometry relative="1" as="geometry" />
        </mxCell>
        <mxCell id="vMiu2fG2k06gHXOazZ61-25" value="" style="edgeStyle=orthogonalEdgeStyle;rounded=0;orthogonalLoop=1;jettySize=auto;html=1;" edge="1" parent="WIyWlLk6GJQsqaUBKTNV-1" source="vMiu2fG2k06gHXOazZ61-17" target="vMiu2fG2k06gHXOazZ61-4">
          <mxGeometry relative="1" as="geometry">
            <mxPoint x="110" y="225" as="targetPoint" />
            <Array as="points">
              <mxPoint x="110" y="220" />
            </Array>
          </mxGeometry>
        </mxCell>
        <mxCell id="vMiu2fG2k06gHXOazZ61-17" value="&lt;font style=&quot;font-size: 10px&quot;&gt;Temperatura mniejsza o 5 stopni od max.&amp;nbsp;&lt;/font&gt;" style="rhombus;whiteSpace=wrap;html=1;" vertex="1" parent="WIyWlLk6GJQsqaUBKTNV-1">
          <mxGeometry x="60" y="345" width="100" height="80" as="geometry" />
        </mxCell>
        <mxCell id="vMiu2fG2k06gHXOazZ61-21" value="NIE" style="text;html=1;strokeColor=none;fillColor=none;align=center;verticalAlign=middle;whiteSpace=wrap;rounded=0;" vertex="1" parent="WIyWlLk6GJQsqaUBKTNV-1">
          <mxGeometry x="170" y="360" width="40" height="20" as="geometry" />
        </mxCell>
        <mxCell id="vMiu2fG2k06gHXOazZ61-26" value="NIE" style="text;html=1;strokeColor=none;fillColor=none;align=center;verticalAlign=middle;whiteSpace=wrap;rounded=0;" vertex="1" parent="WIyWlLk6GJQsqaUBKTNV-1">
          <mxGeometry x="220" y="200" width="40" height="20" as="geometry" />
        </mxCell>
      </root>
    </mxGraphModel>
  </diagram>
</mxfile>
